<svg width="25" height="24" viewBox="0 0 25 24" fill="none" xmlns="http://www.w3.org/2000/svg">
    <path
        d="M19.5 8V6H17.5V4H19.5V2H21.5V4H23.5V6H21.5V8H19.5ZM3.5 22C2.95 22 2.47933 21.8043 2.088 21.413C1.696 21.021 1.5 20.55 1.5 20V8C1.5 7.45 1.696 6.97933 2.088 6.588C2.47933 6.196 2.95 6 3.5 6H6.65L8.5 4H14.5V6H9.375L7.55 8H3.5V20H19.5V11H21.5V20C21.5 20.55 21.3043 21.021 20.913 21.413C20.521 21.8043 20.05 22 19.5 22H3.5ZM11.5 18.5C12.75 18.5 13.8127 18.0627 14.688 17.188C15.5627 16.3127 16 15.25 16 14C16 12.75 15.5627 11.6873 14.688 10.812C13.8127 9.93733 12.75 9.5 11.5 9.5C10.25 9.5 9.18733 9.93733 8.312 10.812C7.43733 11.6873 7 12.75 7 14C7 15.25 7.43733 16.3127 8.312 17.188C9.18733 18.0627 10.25 18.5 11.5 18.5ZM11.5 16.5C10.8 16.5 10.2083 16.2583 9.725 15.775C9.24167 15.2917 9 14.7 9 14C9 13.3 9.24167 12.7083 9.725 12.225C10.2083 11.7417 10.8 11.5 11.5 11.5C12.2 11.5 12.7917 11.7417 13.275 12.225C13.7583 12.7083 14 13.3 14 14C14 14.7 13.7583 15.2917 13.275 15.775C12.7917 16.2583 12.2 16.5 11.5 16.5Z"
        fill="#478173" />
</svg>
