<svg width="48" height="48" viewBox="0 0 48 48" fill="none" xmlns="http://www.w3.org/2000/svg">
    <path
        d="M24 20C21.79 20 20 21.79 20 24C20 26.21 21.79 28 24 28C26.21 28 28 26.21 28 24C28 21.79 26.21 20 24 20ZM32.94 23C32.7135 20.9721 31.8042 19.0815 30.3613 17.6387C28.9185 16.1958 27.0279 15.2865 25 15.06V14C25 13.45 24.55 13 24 13C23.45 13 23 13.45 23 14V15.06C20.9721 15.2865 19.0815 16.1958 17.6387 17.6387C16.1958 19.0815 15.2865 20.9721 15.06 23H14C13.45 23 13 23.45 13 24C13 24.55 13.45 25 14 25H15.06C15.2865 27.0279 16.1958 28.9185 17.6387 30.3613C19.0815 31.8042 20.9721 32.7135 23 32.94V34C23 34.55 23.45 35 24 35C24.55 35 25 34.55 25 34V32.94C27.0279 32.7135 28.9185 31.8042 30.3613 30.3613C31.8042 28.9185 32.7135 27.0279 32.94 25H34C34.55 25 35 24.55 35 24C35 23.45 34.55 23 34 23H32.94ZM24 31C20.13 31 17 27.87 17 24C17 20.13 20.13 17 24 17C27.87 17 31 20.13 31 24C31 27.87 27.87 31 24 31Z"
        fill="black" fill-opacity="0.87" />
</svg>
