<svg width="150" height="40" viewBox="0 0 150 40" fill="none" xmlns="http://www.w3.org/2000/svg">
    <path
        d="M8.60351 33.181C17.9727 33.181 30.9333 38.4564 40.3373 38.4564C47.048 38.4564 53.5963 36.6655 57.3235 34.0284C57.5838 32.4797 57.7217 30.8898 57.7217 29.2671C57.7217 13.5204 44.9561 0.755188 29.2094 0.755188C13.4627 0.755188 0.697266 13.5204 0.697266 29.2671C0.697266 30.8711 0.831824 32.4431 1.08648 33.9747C2.11411 33.7844 5.60822 33.181 8.60351 33.181Z"
        fill="white" />
    <path d="M72.7002 38.7674H138.652V39.5669H72.7002V38.7674Z" fill="#E3A82B" />
    <path
        d="M76.0366 16.7969C76.0366 17.4483 76.0766 18.3707 76.4583 18.7689C76.84 19.185 77.4425 19.2753 78.0449 19.2753C79.8319 19.2753 81.1974 18.552 81.1974 16.7428C81.1974 15.3136 80.3942 13.649 77.2015 13.649C76.117 13.649 76.0366 13.7575 76.0366 14.1193V16.7969ZM76.0366 12.5996C76.0366 13.1066 76.0567 13.1424 77.0808 13.1066C79.1289 13.0339 80.2337 12.491 80.2337 10.7906C80.2337 9.01762 78.7673 8.34819 77.2417 8.34819C76.7997 8.34819 76.4983 8.38445 76.3178 8.45676C76.117 8.51105 76.0366 8.6018 76.0366 8.92686V12.5996ZM74.39 10.1936C74.39 8.85499 74.2954 8.50035 73.3919 8.42763L72.7633 8.38445C72.661 8.30313 72.69 7.94053 72.7834 7.93215C73.8673 7.83553 75.2334 7.78754 77.1009 7.78754C78.366 7.78754 79.5709 7.87787 80.4749 8.29391C81.3382 8.6739 82.0009 9.39744 82.0009 10.5552C82.0009 11.8581 81.1573 12.5275 79.9526 13.0339C79.9526 13.2147 80.1133 13.2692 80.334 13.3051C81.4185 13.4863 83.0248 14.3908 83.0248 16.3265C83.0248 18.4252 81.2982 19.8364 77.6831 19.8364C77.1009 19.8364 76.117 19.7819 75.2734 19.7819C74.39 19.7819 73.7073 19.8186 72.9641 19.8364C72.8436 19.7819 72.8033 19.4926 72.9239 19.3838L73.2857 19.3296C74.3496 19.1667 74.39 18.9678 74.39 17.0683V10.1936Z"
        fill="black" fill-opacity="0.87" />
    <path
        d="M96.9823 11.9742C96.9823 10.3363 96.9476 10.0736 95.9361 9.99643L95.5067 9.96541C95.4036 9.90363 95.4383 9.62523 95.5414 9.57892C96.3983 9.60976 96.9823 9.62523 97.7023 9.62523C98.3885 9.62523 98.9716 9.60976 99.8294 9.57892C99.9325 9.62523 99.9663 9.90363 99.8632 9.96541L99.4347 9.99643C98.4223 10.0736 98.3885 10.3363 98.3885 11.9742V17.4757C98.3885 19.1135 98.4223 19.33 99.4347 19.4384L99.8632 19.4845C99.9663 19.5463 99.9325 19.8243 99.8294 19.8707C98.9716 19.8397 98.3885 19.8243 97.7023 19.8243C96.9823 19.8243 96.3983 19.8397 95.5414 19.8707C95.4383 19.8243 95.4036 19.5771 95.5067 19.4845L95.9361 19.4384C96.9476 19.33 96.9823 19.1135 96.9823 17.4757V11.9742Z"
        fill="black" fill-opacity="0.87" />
    <path
        d="M106.499 17.5079C106.499 19.1303 106.53 19.3621 107.463 19.4394L107.977 19.4858C108.073 19.5474 108.041 19.8253 107.945 19.8721C107.028 19.841 106.483 19.8253 105.839 19.8253C105.196 19.8253 104.634 19.841 103.605 19.8721C103.509 19.8253 103.476 19.5631 103.605 19.4858L104.184 19.4394C105.1 19.3621 105.18 19.1303 105.18 17.5079V10.5999C105.18 10.121 105.18 10.1058 104.699 10.1058H103.814C103.124 10.1058 102.24 10.1367 101.837 10.492C101.452 10.8319 101.292 11.1721 101.115 11.5581C100.986 11.651 100.761 11.5737 100.697 11.45C100.954 10.7548 101.195 9.76576 101.307 9.14763C101.356 9.11678 101.564 9.10132 101.612 9.14763C101.709 9.64185 102.24 9.62656 102.979 9.62656H109.487C110.356 9.62656 110.5 9.59572 110.74 9.19394C110.821 9.16318 110.998 9.17865 111.03 9.24007C110.853 9.87412 110.74 11.1256 110.789 11.5891C110.725 11.7129 110.452 11.7129 110.372 11.6202C110.324 11.2335 110.211 10.6619 109.97 10.492C109.6 10.229 108.989 10.1058 108.106 10.1058H106.964C106.483 10.1058 106.499 10.121 106.499 10.6309V17.5079Z"
        fill="black" fill-opacity="0.87" />
    <path
        d="M113.386 11.9742C113.386 10.3363 113.351 10.0736 112.339 9.99643L111.91 9.96541C111.808 9.90363 111.842 9.62523 111.945 9.57892C112.803 9.60976 113.386 9.62523 114.107 9.62523C114.792 9.62523 115.375 9.60976 116.233 9.57892C116.336 9.62523 116.371 9.90363 116.267 9.96541L115.838 9.99643C114.827 10.0736 114.792 10.3363 114.792 11.9742V17.4757C114.792 19.1135 114.827 19.33 115.838 19.4384L116.267 19.4845C116.371 19.5463 116.336 19.8243 116.233 19.8707C115.375 19.8397 114.792 19.8243 114.107 19.8243C113.386 19.8243 112.803 19.8397 111.945 19.8707C111.842 19.8243 111.808 19.5771 111.91 19.4845L112.339 19.4384C113.351 19.33 113.386 19.1135 113.386 17.4757V11.9742Z"
        fill="black" fill-opacity="0.87" />
    <path
        d="M121.074 20.0285C119.541 20.0285 118.575 19.6267 118.229 19.457C118.01 19.1168 117.772 18.0197 117.736 17.2933C117.828 17.1851 118.101 17.1544 118.174 17.247C118.448 18.035 119.196 19.5491 121.31 19.5491C122.843 19.5491 123.59 18.6995 123.59 17.7723C123.59 17.0925 123.426 16.3353 122.094 15.6088L120.363 14.6506C119.451 14.1408 118.393 13.2599 118.393 11.9929C118.393 10.5247 119.742 9.33484 122.113 9.33484C122.677 9.33484 123.334 9.42755 123.809 9.53564C124.045 9.59751 124.3 9.62826 124.447 9.62826C124.611 9.99973 124.775 10.8649 124.775 11.5138C124.702 11.6067 124.41 11.6528 124.319 11.5601C124.082 10.8186 123.59 9.81404 121.839 9.81404C120.052 9.81404 119.669 10.8186 119.669 11.5291C119.669 12.4255 120.545 13.0748 121.22 13.4301L122.677 14.2027C123.827 14.8052 124.957 15.7014 124.957 17.1697C124.957 18.8694 123.444 20.0285 121.074 20.0285Z"
        fill="black" fill-opacity="0.87" />
    <path
        d="M130.252 14.8331C129.453 14.8331 129.42 14.8638 129.42 15.3275V17.5066C129.42 19.1291 129.504 19.3455 130.435 19.4384L130.916 19.4845C131.017 19.5463 130.983 19.8241 130.884 19.8707C129.986 19.8397 129.42 19.8241 128.772 19.8241C128.057 19.8241 127.492 19.8551 126.843 19.8707C126.743 19.8241 126.71 19.5771 126.81 19.4845L127.092 19.4384C128.024 19.2837 128.057 19.1291 128.057 17.5066V11.9434C128.057 10.3207 127.94 10.0583 127.076 9.99643L126.644 9.96541C126.544 9.90363 126.577 9.62523 126.676 9.57892C127.492 9.59447 128.057 9.62523 128.772 9.62523C129.42 9.62523 129.986 9.60976 130.7 9.57892C130.801 9.62523 130.834 9.90363 130.734 9.96541L130.418 9.99643C129.453 10.0891 129.42 10.3207 129.42 11.9434V13.7203C129.42 14.1992 129.453 14.2149 130.252 14.2149H135.007C135.806 14.2149 135.839 14.1992 135.839 13.7203V11.9434C135.839 10.3207 135.806 10.0891 134.825 9.99643L134.508 9.96541C134.409 9.90363 134.442 9.62523 134.542 9.57892C135.308 9.60976 135.872 9.62523 136.554 9.62523C137.203 9.62523 137.768 9.60976 138.516 9.57892C138.616 9.62523 138.649 9.90363 138.549 9.96541L138.201 9.99643C137.236 10.0891 137.203 10.3207 137.203 11.9434V17.5066C137.203 19.1291 137.236 19.33 138.201 19.4384L138.6 19.4845C138.7 19.5463 138.666 19.8241 138.566 19.8707C137.768 19.8397 137.203 19.8241 136.554 19.8241C135.872 19.8241 135.274 19.8397 134.542 19.8707C134.442 19.8241 134.409 19.5771 134.508 19.4845L134.825 19.4384C135.839 19.2837 135.839 19.1291 135.839 17.5066V15.3275C135.839 14.8638 135.806 14.8331 135.007 14.8331H130.252Z"
        fill="black" fill-opacity="0.87" />
    <path
        d="M64.8733 23.2673C66.24 22.204 67.9814 21.6817 69.9286 21.6817C70.9395 21.6817 72.3623 21.8867 73.2425 22.1294C73.4672 22.1853 73.5983 22.2229 73.7667 22.204C73.7854 22.6333 73.8791 23.8082 74.0287 24.9465C73.9352 25.0771 73.6544 25.096 73.5234 24.984C73.2425 23.7154 72.3999 22.2597 69.6851 22.2597C66.8204 22.2597 64.3864 24.0698 64.3864 27.9317C64.3864 31.8497 66.8766 34.0141 69.9471 34.0141C72.3622 34.0141 73.4297 32.4468 73.8602 31.3458C73.9914 31.253 74.2725 31.2899 74.3471 31.4206C74.2163 32.3909 73.7292 33.622 73.4484 33.9768C73.2237 34.0141 72.9992 34.0887 72.7932 34.1629C72.3811 34.3128 71.0332 34.5924 69.8348 34.5924C68.1499 34.5924 66.5398 34.2568 65.1728 33.3421C63.6749 32.316 62.5142 30.6188 62.5142 28.212C62.5142 26.1405 63.4503 24.3683 64.8733 23.2673Z"
        fill="black" fill-opacity="0.87" />
    <path
        d="M84.8983 29.6257C84.8983 27.0758 83.714 24.325 80.6148 24.325C78.9273 24.325 76.7371 25.4223 76.7371 28.8068C76.7371 31.0937 77.9052 34.0609 81.1015 34.0609C83.0487 34.0609 84.8983 32.67 84.8983 29.6257ZM75.1143 29.301C75.1143 26.2104 77.5482 23.8462 80.8908 23.8462C84.6387 23.8462 86.5209 26.4266 86.5209 29.1465C86.5209 32.2682 84.0221 34.5398 80.8908 34.5398C77.2887 34.5398 75.1143 32.0825 75.1143 29.301Z"
        fill="black" fill-opacity="0.87" />
    <path
        d="M104.827 27.9743C104.827 27.0163 104.794 25.2387 104.516 24.7755C104.401 24.59 104.106 24.4816 103.696 24.4506L103.287 24.4199C103.189 24.3117 103.221 24.1109 103.32 24.0488C103.942 24.0797 104.548 24.0954 105.187 24.0954C105.876 24.0954 106.317 24.0797 106.908 24.0493C107.038 24.1266 107.022 24.3272 106.94 24.4199L106.547 24.4506C106.137 24.4816 105.826 24.6208 105.728 24.8218C105.499 25.3316 105.499 27.1089 105.499 27.9743V29.7205C105.499 31.0652 105.268 32.4866 104.352 33.4136C103.647 34.1401 102.436 34.5419 101.223 34.5419C100.093 34.5419 98.9626 34.3409 98.16 33.692C97.2915 33.0123 96.8826 31.884 96.8826 30.0453V26.398C96.8826 24.7911 96.8497 24.5282 95.8995 24.4506L95.4897 24.4199C95.392 24.358 95.424 24.0956 95.5226 24.0488C96.3422 24.0797 96.8986 24.0954 97.5537 24.0954C98.2257 24.0954 98.7662 24.0797 99.5688 24.0493C99.6666 24.0956 99.6995 24.358 99.6017 24.4199L99.208 24.4506C98.2577 24.5282 98.2257 24.7911 98.2257 26.398V29.7359C98.2257 32.2238 99.0444 33.8622 101.55 33.8622C103.925 33.8622 104.827 32.1001 104.827 29.7517V27.9743Z"
        fill="black" fill-opacity="0.87" />
    <path
        d="M125.349 31.7387C125.349 32.3005 125.385 33.0963 125.729 33.4399C126.073 33.7989 126.616 33.8769 127.159 33.8769C128.771 33.8769 130.002 33.2525 130.002 31.6917C130.002 30.4587 129.277 29.0232 126.399 29.0232C125.421 29.0232 125.349 29.1163 125.349 29.4287V31.7387ZM125.349 28.1173C125.349 28.5547 125.367 28.5858 126.29 28.5547C128.137 28.4923 129.132 28.0241 129.132 26.5567C129.132 25.0271 127.812 24.4494 126.436 24.4494C126.036 24.4494 125.765 24.4807 125.603 24.5434C125.421 24.5901 125.349 24.6681 125.349 24.9489V28.1173ZM123.864 26.0417C123.864 24.8867 123.792 24.5901 122.977 24.5278L122.397 24.4715C122.332 24.4119 122.297 24.0992 122.416 24.0904C123.394 24.0172 124.625 23.9659 126.308 23.9659C127.449 23.9659 128.535 24.0439 129.35 24.4025C130.129 24.7305 130.726 25.3549 130.726 26.354C130.726 27.4774 129.965 28.0553 128.879 28.4923C128.879 28.6484 129.024 28.6952 129.223 28.7264C130.201 28.8823 131.65 29.6631 131.65 31.3327C131.65 33.1431 130.092 34.3606 126.834 34.3606C126.308 34.3606 125.421 34.3139 124.661 34.3139C123.864 34.3139 123.249 34.345 122.579 34.3606C122.47 34.3139 122.434 34.0643 122.542 33.9708L122.868 33.9239C123.828 33.7835 123.864 33.6115 123.864 31.973V26.0417Z"
        fill="black" fill-opacity="0.87" />
    <path
        d="M88.1097 14.4075C87.7982 14.4075 87.1756 14.5234 87.1756 14.1099V11.1456C87.1756 9.98676 87.2125 9.82098 88.6042 9.82098C90.2338 9.82098 91.2409 10.6486 91.2409 12.172C91.2409 12.8345 91.0036 13.4471 90.3991 13.8611C89.7031 14.3415 88.952 14.4075 88.1097 14.4075ZM94.3618 19.4855L93.9325 19.4484C93.8454 19.4392 93.7689 19.4283 93.6951 19.4161C93.0676 19.3051 92.8169 18.7463 92.5209 18.2277L91.0383 15.6445C90.7814 15.214 90.5067 14.6345 89.9209 14.5519C91.4409 14.3696 92.8143 13.4922 92.8143 11.9854C92.8143 10.2465 91.0925 9.46844 89.3529 9.46844C88.3091 9.46844 87.3577 9.49671 86.2955 9.49671C85.7097 9.49671 85.0126 9.46844 84.4268 9.46844C84.1013 9.46844 84.0971 9.53467 84.0971 9.7168C84.0971 9.98551 84.2105 9.91031 84.5552 9.92978C85.7927 9.99938 85.7454 10.2301 85.7454 11.2898V18.0624C85.7454 19.0316 85.8292 19.321 84.8116 19.4122C84.8116 19.4122 84.6557 19.4283 84.5672 19.4377L84.1361 19.482C84.033 19.5744 84.0678 19.8217 84.1704 19.868C84.3998 19.8596 84.8062 19.8437 84.8062 19.8437C85.3695 19.8269 85.9327 19.784 86.4961 19.784C87.0626 19.784 87.6047 19.8276 88.1617 19.8439C88.3594 19.8501 88.5683 19.8575 88.797 19.8657C88.9005 19.8194 88.9351 19.5723 88.8314 19.4796L88.3975 19.4386C88.3091 19.4292 88.1569 19.4155 88.1569 19.4155C87.1293 19.346 87.1924 19.0561 87.1924 18.0624V15.5123C87.1924 15.3632 87.1735 14.966 87.2838 14.85C87.3753 14.7502 87.5399 14.7669 87.6863 14.7669C89.0791 14.7669 89.0596 14.8996 89.7191 16.0587L91.5138 19.2875C91.6605 19.536 91.7707 19.8504 92.1369 19.8504H93.696C93.8925 19.8567 94.0987 19.8632 94.3271 19.8716C94.4294 19.8252 94.464 19.578 94.3618 19.4855Z"
        fill="black" fill-opacity="0.87" />
    <path
        d="M88.4446 26.4503C88.4446 24.8278 88.4106 24.5801 87.34 24.5029L86.9148 24.4722C86.8129 24.4103 86.8469 24.1324 86.9487 24.0857C87.9009 24.1167 88.4785 24.132 89.1582 24.132C89.8214 24.132 90.3991 24.1167 91.2498 24.0863C91.3511 24.1324 91.3849 24.4103 91.2836 24.4722L90.8756 24.5029C89.8729 24.5801 89.8382 24.8278 89.8382 26.4503V31.8282C89.8382 32.8018 89.8898 33.2036 90.1956 33.497C90.3822 33.6668 90.7058 33.8524 92.048 33.8524C93.4934 33.8524 93.8498 33.7904 94.1227 33.6517C94.4622 33.466 94.904 32.91 95.2436 32.1217C95.3467 32.0447 95.6694 32.106 95.6694 32.2143C95.6694 32.3844 95.1929 33.9608 94.9547 34.3777C94.088 34.3469 92.4729 34.3314 90.7218 34.3314H89.1582C88.4446 34.3314 87.9009 34.3469 86.9487 34.3777C86.8469 34.3314 86.8129 34.0841 86.9148 33.9915L87.4249 33.9453C88.4106 33.8524 88.4446 33.636 88.4446 32.0137V26.4503Z"
        fill="black" fill-opacity="0.87" />
    <path
        d="M133.983 26.4811C133.983 24.8434 133.949 24.5803 132.965 24.5029L132.548 24.4724C132.448 24.4103 132.481 24.1326 132.581 24.0857C133.415 24.1169 133.983 24.1322 134.684 24.1322C135.351 24.1322 135.919 24.1169 136.754 24.0863C136.853 24.1326 136.887 24.4103 136.787 24.4724L136.369 24.5029C135.385 24.5803 135.351 24.8434 135.351 26.4811V31.9829C135.351 33.6209 135.385 33.8372 136.369 33.9453L136.787 33.9917C136.887 34.0534 136.853 34.3314 136.754 34.3779C135.919 34.3469 135.351 34.3314 134.684 34.3314C133.983 34.3314 133.415 34.3469 132.581 34.3779C132.481 34.3314 132.448 34.0841 132.548 33.9917L132.965 33.9453C133.949 33.8372 133.983 33.6209 133.983 31.9829V26.4811Z"
        fill="black" fill-opacity="0.87" />
    <path
        d="M120.647 33.9421C120.561 33.933 120.401 33.9204 120.401 33.9204C120.226 33.9028 120.068 33.8774 119.943 33.7412C119.726 33.511 119.744 32.8555 119.744 32.593V25.8217C119.744 25.5264 119.672 24.8871 119.889 24.6573C119.997 24.5363 120.222 24.516 120.423 24.5046C120.545 24.4954 120.548 24.4941 120.654 24.4889L121.084 24.4583C121.187 24.3963 121.152 24.1184 121.049 24.0718C120.82 24.0798 120.612 24.0769 120.413 24.083L118.59 24.0838C118.392 24.0838 118.212 24.0838 118.103 24.297L114.388 32.0357L111.106 24.5594C110.997 24.297 110.98 24.0838 110.636 24.0838H108.739C108.541 24.0777 108.323 24.0798 108.093 24.0718C107.991 24.1184 107.956 24.3963 108.06 24.4583L108.488 24.4889C108.577 24.4961 108.737 24.5069 108.737 24.5069C109.449 24.5526 109.493 24.7118 109.428 25.461L108.869 32.724C108.82 33.4534 108.78 33.8389 108.016 33.9099C108.016 33.9099 107.855 33.9301 107.766 33.9395L107.338 33.986C107.235 34.0782 107.269 34.3255 107.372 34.3718C107.598 34.3635 108 34.3517 108 34.3517C108.388 34.3326 108.781 34.2982 109.176 34.2982C109.602 34.2982 110.028 34.3385 110.453 34.3555V34.3564C110.652 34.3624 110.86 34.3694 111.089 34.3773C111.192 34.331 111.227 34.0838 111.124 33.9912L110.695 33.9449C110.582 33.9361 110.455 33.9236 110.455 33.9236C109.353 33.8481 109.378 33.0699 109.446 32.1179L109.97 25.363H110.096L113.649 33.6754C113.684 33.7901 113.739 33.9869 113.919 33.9869C114.082 33.9869 114.136 33.8068 114.189 33.6915L118.193 25.1655H118.319V32.593C118.319 32.8881 118.356 33.495 118.049 33.7242C117.889 33.8435 117.368 33.9151 117.368 33.9151C117.296 33.9265 117.22 33.9369 117.135 33.946L116.707 33.9921C116.604 34.0847 116.638 34.3318 116.741 34.3783C116.967 34.3701 117.368 34.3576 117.368 34.3576C117.949 34.3414 118.54 34.2982 119.131 34.2982C119.556 34.2982 120.388 34.3388 120.388 34.3388C120.587 34.3448 120.812 34.3664 121.042 34.3746C121.145 34.3283 121.179 34.0812 121.076 33.9887L120.647 33.9421Z"
        fill="black" fill-opacity="0.87" />
    <path
        d="M144.011 30.1567H142.004C141.934 30.1567 141.376 30.2223 141.376 30.0587C141.376 30.0093 141.411 29.9111 141.428 29.8622L142.632 26.8802C142.667 26.7982 142.789 26.3885 142.929 26.3885C143.034 26.3885 143.173 26.8146 143.208 26.8802L144.395 29.6653C144.395 29.6981 144.516 29.9604 144.516 30.026C144.516 30.2061 144.116 30.1567 144.011 30.1567ZM148.516 33.9818L148.458 33.9355C148.372 33.9264 148.296 33.9162 148.224 33.9043C147.556 33.755 147.296 32.9501 147.049 32.3767L143.61 24.2374C143.575 24.1397 143.508 23.9291 143.372 23.9291C143.184 23.9291 143.133 24.1561 143.082 24.2854L139.796 32.4093C139.676 32.7173 139.371 33.4637 139.149 33.6901C138.98 33.8637 138.758 33.8971 138.523 33.9214C138.523 33.9214 138.338 33.939 138.249 33.9486L137.845 33.9898C137.742 34.0821 137.777 34.3295 137.88 34.376C138.108 34.3678 138.516 34.353 138.516 34.353C138.964 34.3469 139.414 34.2901 139.864 34.2901C140.243 34.2901 140.621 34.3303 140.999 34.3471C140.999 34.3471 141.405 34.3616 141.635 34.3704C141.738 34.3237 141.772 34.0763 141.669 33.9839L141.24 33.9373C141.155 33.9285 141.007 33.9147 141.007 33.9147C140.612 33.8709 140.12 33.8003 140.12 33.3656C140.12 33.0738 140.256 32.7333 140.358 32.4738L140.868 31.2581C141.124 30.6746 141.022 30.6093 141.702 30.6093H144.019C144.836 30.6093 144.716 30.6093 145.074 31.4367L145.619 32.6683C145.704 32.8796 145.857 33.2361 145.857 33.4637C145.857 33.8709 145.412 33.8977 144.996 33.933C144.996 33.933 144.859 33.9445 144.739 33.9537L144.326 33.9837C144.223 34.0761 144.258 34.3234 144.361 34.37C144.59 34.3616 144.996 34.345 144.996 34.345C145.481 34.3274 145.968 34.2901 146.436 34.2901C147.032 34.2901 147.628 34.3306 148.224 34.3476C148.42 34.3537 148.255 34.3599 148.481 34.3681C148.584 34.3215 148.619 34.0742 148.516 33.9818Z"
        fill="black" fill-opacity="0.87" />
    <path d="M47.6506 22.6726L48.778 23.14L51.2783 21.3962L47.6506 22.6726Z" fill="#E3A82B" />
    <path
        d="M5.64049 20.7237L2.67707 19.681L2.82567 19.318L6.16301 20.4307L6.17747 20.4225L6.61783 20.1729L6.79346 20.0629L3.15431 18.5148L3.30815 18.1341L11.4307 21.4193L11.6986 21.3082L3.64287 17.3826L3.82249 17.0137L12.3592 20.9867L12.4772 20.9268L4.19997 16.2319L4.36994 15.8794L16.3228 22.3832C16.4207 22.2023 16.6257 21.8726 16.7308 21.6954C12.1865 17.4226 7.80119 14.2146 7.80119 14.2146C7.80119 14.2146 12.311 17.2348 17.877 20.0427C18.0607 19.8132 18.2116 19.629 18.408 19.4112L8.21094 10.434L8.48466 10.1529L16.7147 17.1673L9.08994 9.53165L9.37545 9.2361L17.936 17.5093L9.96737 8.66477L10.2721 8.39L17.6371 16.2765L10.9149 7.80649L11.2043 7.54324L19.8211 18.0296C20.0439 17.8373 20.229 17.6927 20.462 17.5141C17.8555 11.8736 15.0091 7.28523 15.0091 7.28523C15.0091 7.28523 18.0387 11.745 22.1264 16.4155C22.3761 16.2749 22.6292 16.1401 22.8879 16.0133L22.8444 15.9853L16.8057 3.93343L17.1647 3.77561L22.1679 13.362L17.9587 3.42579L18.334 3.25917L23.1721 14.1366L19.0965 2.95086L19.4822 2.81022L23.3567 12.8818L20.2967 2.51009L20.6641 2.37469L24.6924 15.2387L24.6847 15.2726L24.6947 15.2686C24.9627 15.1787 25.2351 15.0995 25.5091 15.0249C25.2024 8.84607 24.2883 3.56057 24.2883 3.56057C24.2883 3.56057 25.4202 8.79954 27.4494 14.6411C27.732 14.6063 28.0163 14.5767 28.3031 14.5574L28.2941 14.544H28.3293L28.3091 14.5145L27.2248 1.07836L27.6167 1.066L28.6643 11.829L28.4842 1.03959L28.8941 1.02576L29.3054 12.9235L29.7162 1.02554L30.127 1.03959L29.9465 11.829L30.9943 1.0662L31.386 1.07836L30.3016 14.5145L30.2812 14.544H30.2871L30.2842 14.5483H30.3019C30.5824 14.5659 30.8605 14.594 31.1366 14.627C33.1631 8.79115 34.2931 3.56057 34.2931 3.56057C34.2931 3.56057 33.3818 8.83014 33.0737 14.9976C33.3503 15.0708 33.624 15.151 33.8938 15.2395L37.9079 2.42018L38.2757 2.55578L35.2153 12.9275L39.0902 2.85592L39.4755 2.99676L35.3997 14.1823L40.2377 3.30466L40.6135 3.47149L36.4041 13.4078L41.4075 3.8213L41.7663 3.97912L35.7489 15.9877L35.7591 15.9919C36.0071 16.1126 36.2498 16.2415 36.49 16.3749C40.5601 11.7192 43.5723 7.28523 43.5723 7.28523C43.5723 7.28523 40.7453 11.8422 38.1464 17.4553C38.3787 17.6305 38.6059 17.8116 38.8263 18L47.3419 7.6277L47.6323 7.89116L40.9092 16.3613L48.2749 8.47467L48.5791 8.74965L40.6101 17.5939L49.1707 9.32063L49.4564 9.6161L41.8316 17.252L50.0618 10.238L50.3355 10.5184L40.2628 19.3944L40.2687 19.4005C40.4446 19.5965 40.6139 19.7988 40.7802 20.0042C46.3108 17.2076 50.7803 14.2146 50.7803 14.2146C50.7803 14.2146 46.4375 17.3914 41.9168 21.6335C42.0406 21.8402 42.2406 22.1932 42.3548 22.4061L54.1383 15.9902L54.3087 16.3434L44.9024 21.6781L54.6858 17.1252L54.8651 17.4941L45.7525 21.9345L45.9273 21.9955L55.1999 18.2451L55.3539 18.6259L46.7351 22.2918L46.8963 22.3587L52.6395 20.4441L53.5051 19.8398L53.7924 20.0593L55.6824 19.4293L55.831 19.7918L54.1959 20.3671L56.5583 22.1699L57.3153 22.592C54.2781 9.8953 42.857 0.455872 29.2297 0.455872C15.3631 0.455872 3.78078 10.2301 0.991943 23.2639C1.02778 23.2465 1.06237 23.2304 1.09821 23.2128L1.44425 23.056L1.65657 22.9569L5.64049 20.7237Z"
        fill="#E3A82B" />
    <path
        d="M0.829677 34.587C0.829677 34.587 5.08964 33.7364 8.64559 33.7364C18.0148 33.7364 30.9754 39.012 40.3794 39.012C47.2779 39.012 54.0062 37.1196 57.6731 34.3605C57.9595 32.7282 58.1096 31.0494 58.1096 29.3349C58.1096 27.013 57.834 24.7559 57.3163 22.5923L53.3959 20.4061L48.796 23.6319L45.7015 22.427C44.654 22.9564 38.191 27.2784 38.191 27.2784L35.7105 25.4828L33.0491 24.9557L29.5003 22.372L25.4295 25.1668C25.4295 25.1668 20.8879 27.8038 20.732 27.8038C20.5752 27.8038 15.2523 23.5841 15.2523 23.5841L12.7999 21.0005C12.3822 21.2641 10.714 22.0295 10.714 22.0295L10.6283 22.0522L9.01403 21.5529L7.05374 20.5132L1.09921 23.2131C1.06337 23.2307 1.02879 23.247 0.992946 23.2645C0.573975 25.2219 0.351807 27.2524 0.351807 29.3349C0.351807 31.1286 0.516546 32.8839 0.829677 34.587Z"
        fill="#65799E" />
</svg>
