<svg width="96" height="96" viewBox="0 0 96 96" fill="none" xmlns="http://www.w3.org/2000/svg">
    <path
        d="M24.0438 23.1176C24.0438 23.1176 25.8663 17.6426 30.1638 14.2076C34.4613 10.7726 74.3013 25.4876 74.3013 25.4876C74.3013 25.4876 81.2613 27.9701 85.3788 34.5476C88.1463 38.9726 89.6913 45.5126 86.7588 53.4101C79.7688 72.2201 61.6338 70.0451 56.9088 68.9726C54.6888 68.4701 49.2813 67.0376 49.2813 67.0376C49.2813 67.0376 36.9288 77.2376 22.0638 69.4151C10.7463 63.4601 12.1488 54.5576 12.1488 54.5576C12.1488 54.5576 4.52879 46.9376 7.82879 36.3251C11.8038 23.5451 24.0438 23.1176 24.0438 23.1176Z"
        fill="#3A695E" />
    <path
        d="M49.8211 45.8801C60.1336 44.1626 63.3511 39.7601 66.1486 35.6801C69.2311 31.1801 68.4061 27.4076 70.5511 27.3026C72.6961 27.1976 74.4061 31.0676 72.0511 37.8251C68.7211 47.3801 61.8736 48.7826 61.7386 51.3551C61.6336 53.3951 69.0286 53.5376 75.7036 50.2826C85.3711 45.5576 85.3711 34.4951 85.3711 34.4951C85.3711 34.4951 83.6536 30.9476 80.3236 28.4801C76.9936 26.0126 74.5186 24.7226 74.5186 24.7226C74.5186 24.7226 70.5436 9.79762 52.5061 7.32262C34.4686 4.84762 27.0511 17.4251 27.0511 17.4251C27.0511 17.4251 27.6961 21.5051 30.8086 26.2301C33.2911 30.0026 35.8561 29.8826 35.6386 32.0276C35.4961 33.4226 31.0186 33.8501 26.2936 31.8101C21.9886 29.9501 20.9236 27.4076 19.7461 27.4076C18.5686 27.4076 8.80363 32.8451 12.8761 44.3726C16.1011 53.5001 26.7586 55.2101 28.6636 55.5401C34.2511 56.5076 37.4686 52.8551 33.4936 49.9526C29.5186 47.0501 25.1161 45.3326 26.0836 42.4376C27.1261 39.3026 30.8461 42.5726 35.3161 44.5076C39.7336 46.4201 45.0811 46.6751 49.8211 45.8801Z"
        fill="#519484" />
    <path
        d="M29.3162 57.8501C29.3162 57.8501 31.7912 57.7076 32.8112 57.4151C33.8312 57.1226 35.2112 56.2526 35.2112 56.2526C35.2112 56.2526 44.7737 66.2576 45.7637 67.0976C46.7312 67.9151 47.8712 55.4501 47.8712 55.4501C47.8712 55.4501 50.0537 55.7876 52.0937 55.4651C54.7787 55.0376 56.6087 54.1826 56.6087 54.1826C56.6087 54.1826 55.3037 61.8551 54.7937 64.7651C54.4712 66.6326 54.3587 71.8226 54.3587 71.8226L47.3687 77.6426L42.0512 74.0726C42.0512 74.0726 42.0362 72.6701 41.2487 71.7176C38.8037 68.7626 29.3162 57.8501 29.3162 57.8501ZM53.6987 74.9576L59.0162 68.5526C59.0162 68.5526 60.9062 68.6951 62.2937 68.6951C63.6737 68.6951 66.0812 68.4026 66.0812 68.4026C66.0812 68.4026 61.7162 74.2976 59.3837 77.2076C57.0512 80.1176 53.9987 83.7626 53.9987 83.7626L51.0887 75.3176L53.6987 74.9576Z"
        fill="#605039" />
    <path
        d="M50.1116 69.6401C47.9719 69.8642 42.3794 74.4921 42.3794 74.4921C42.3794 74.4921 42.6671 82.3517 42.4532 86.79C46.5 88 50.1116 89.5 54.9073 85.954C54.9073 81.0159 54.4794 71.898 54.4794 71.898C54.4794 71.898 52.5463 69.3902 50.1116 69.6401Z"
        fill="#705E43" />
</svg>
