<svg width="72" height="72" viewBox="0 0 72 72" fill="none" xmlns="http://www.w3.org/2000/svg">
    <path
        d="M34.3119 31.3025C34.0925 32.3262 33.5807 35.1612 33.4682 36.1906C33.3219 37.4956 33.3444 39.2506 33.4907 40.6625C33.6032 41.765 34.3457 46.5069 34.6607 48.5037C34.745 49.0381 34.4525 49.5556 33.9519 49.7525C32.3375 50.405 28.5013 51.8112 23.1913 52.8294C18.3482 53.7575 15.2882 54.1344 13.8257 54.2806C13.2407 54.3369 12.7063 53.9544 12.5825 53.375C11.885 50.1631 9.55065 39.7906 6.78315 32.1856C6.42878 31.2125 2.52503 19.6025 2.52503 19.6025C1.89503 17.87 2.33378 16.1881 3.9819 15.5131C5.67503 14.8156 6.92378 15.6087 7.5594 17.1106L10.1525 24.08C10.2763 24.3725 10.5463 24.8956 10.85 24.8112C11.1763 24.7156 11.2607 24.4287 11.1763 24.1081C10.6194 21.92 8.33565 14.7312 8.06565 13.3531C7.6944 11.4462 8.26815 9.8431 10.0175 9.38748C11.7669 8.93185 13.28 10.1806 13.6682 11.6037C14.0563 13.0269 16.8294 22.6681 16.8294 22.6681C17.0657 23.3206 17.7125 22.865 17.6507 22.5219L15.2994 9.65185C14.8382 6.95748 16.2557 5.32623 18.0332 5.2531C19.4619 5.19685 21.0144 5.89435 21.4757 8.23435L23.7369 21.6725C23.8944 22.2631 24.4288 22.2181 24.3782 21.5206L23.6132 9.92185C23.4557 7.17685 24.6032 6.30498 26.0488 6.21498C28.2144 6.07998 29.1032 7.33435 29.2888 9.74748C29.3844 11.0019 30.3182 20.5137 30.3182 20.5137C30.3294 20.6656 30.3463 20.9187 30.3463 20.9187C30.9707 20.1594 31.7863 19.3944 33.08 19.3775C34.2557 19.3606 35.2063 19.6194 35.7744 21.8019C36.2638 23.7087 34.8913 28.6137 34.3119 31.3025Z"
        fill="#478173" />
    <path
        d="M26.87 31.19C26.6337 27.6856 26.9994 21.1943 30.2225 19.6587L30.335 20.9131C28.3719 23.6187 27.7981 31.55 27.7587 32.6468C27.7194 33.7493 27.0106 33.2656 26.87 31.19ZM16.2275 53.9768C16.2275 53.9768 15.3556 53.87 14.9056 52.6606C14.4556 51.4512 13.3644 45.9668 13.3194 45.5C13.2237 44.5212 13.4769 44.5156 13.64 44.5212C13.8537 44.5325 14.1069 44.8587 14.36 45.8993C14.81 47.7443 16.2275 53.9768 16.2275 53.9768ZM20.5925 53.2906C20.5925 53.2906 19.7206 53.1837 19.2706 51.9743C18.8206 50.765 17.7575 45.41 17.7069 44.9487C17.6 43.9475 17.7856 43.9025 17.9037 43.8518C18.1287 43.7562 18.4325 44.0037 18.725 45.2131C19.1694 47.0581 20.5925 53.2906 20.5925 53.2906ZM24.5469 52.4975C24.5469 52.4975 23.675 52.3906 23.225 51.1812C22.8763 50.2475 21.9706 46.3775 21.6669 44.465C21.5487 43.7168 21.65 43.1262 21.9762 43.1206C22.1225 43.115 22.3531 42.9518 22.685 44.42C23.0956 46.2706 24.5469 52.4975 24.5469 52.4975ZM31.7187 50.5793C31.7187 50.5793 32.4556 50.1068 32.3431 48.8243C32.2531 47.8343 31.4262 43.9362 30.8919 42.0743C30.8019 41.765 30.5206 41.0787 30.1494 41.1743C29.7781 41.27 29.795 41.6637 29.9694 42.4793C30.3575 44.33 31.7187 50.5793 31.7187 50.5793ZM27.5956 51.7493C27.5956 51.7493 28.3325 51.2768 28.22 49.9943C28.1356 49.0381 27.365 45.3987 26.8306 43.4693C26.645 42.8 26.5437 42.2206 26.0712 42.215C25.6662 42.2093 25.6719 42.8562 25.8462 43.6493C26.0094 44.4425 27.5956 51.7493 27.5956 51.7493Z"
        fill="#366358" />
    <path
        d="M37.58 44.825C37.7937 45.8487 38.2775 48.6894 38.39 49.7187C38.525 51.0237 38.4856 52.7787 38.3281 54.1906C38.21 55.2256 37.5181 59.4669 37.1637 61.6269C37.1001 61.999 37.1666 62.3817 37.352 62.7106C37.5374 63.0394 37.8305 63.2944 38.1819 63.4325C39.9706 64.1469 43.6156 65.4575 48.5375 66.4362C53.1894 67.3644 56.4519 67.5106 58.1562 67.4994C58.54 67.4968 58.911 67.3615 59.2063 67.1165C59.5016 66.8714 59.703 66.5317 59.7762 66.155C60.4287 62.7462 62.3806 53.2456 65.1144 45.9275C65.4744 44.96 69.4737 33.3781 69.4737 33.3781C70.115 31.6512 69.6931 29.9637 68.0506 29.2775C66.3631 28.5687 65.1087 29.3506 64.4562 30.8469L61.4637 38.1369C61.34 38.4294 61.115 38.5194 60.9519 38.4575C60.7887 38.3956 60.7775 38.2269 60.8675 37.9006C61.4412 35.7181 63.6856 28.0119 63.9669 26.6394C64.2987 25.025 63.6969 23.5231 61.9531 23.0506C60.2094 22.5837 58.7581 23.5569 58.3587 24.98C57.9594 26.4031 55.1356 36.725 55.1356 36.725C55.0456 37.0737 54.3706 36.9612 54.5112 36.3706L57.2787 23.2306C57.7006 20.6262 56.6825 19.265 54.8487 18.9162C53.0206 18.5675 51.5244 19.4 51.0687 22.0044C51.0687 22.0044 48.6894 35.2456 48.605 35.6056C48.4981 36.0387 47.84 35.9769 47.9469 35.42L48.9931 23.1462C49.0437 20.6487 47.7275 19.7881 46.1131 19.7656C43.8575 19.7375 42.9575 21.3462 42.7662 23.5512C42.6594 24.8056 41.6525 34.4694 41.6525 34.4694C41.6525 34.4694 40.5331 33.0294 39.0481 33.0687C38.3394 33.0856 36.6125 33.4456 36.4944 35.7969C36.3987 37.4619 37.0231 42.1362 37.58 44.825Z"
        fill="#478173" />
    <path
        d="M39.9312 44.5494C39.4306 41.0112 40.0719 33.2712 40.0719 33.2712C40.865 33.4287 41.6412 34.4694 41.6412 34.4694L40.8369 46.0681C40.8369 46.0681 40.2575 46.8556 39.9312 44.5494ZM40.415 64.2256C40.415 64.2256 39.6612 63.7812 39.7231 62.4931C39.7737 61.4581 40.5612 57.2562 41 55.4731C41.2531 54.4381 41.5625 54.4775 41.6975 54.4944C41.9337 54.5169 42.0969 54.8769 41.8944 56.0637C41.5737 57.9425 40.415 64.2256 40.415 64.2256ZM44.7406 65.5812C44.7406 65.5812 43.9869 65.1369 44.0487 63.8487C44.0994 62.8137 44.87 58.6231 45.3256 56.84C45.59 55.8106 45.8994 55.8331 46.0344 55.85C46.265 55.8837 46.4112 56.1425 46.22 57.4194C45.9275 59.2981 44.7406 65.5812 44.7406 65.5812ZM48.6275 66.4531C48.6275 66.4531 47.8737 66.0087 47.9356 64.7206C47.9862 63.6856 49.0269 58.5275 49.2125 57.7062C49.3981 56.885 49.5781 56.5756 49.8706 56.6206C50.1631 56.6656 50.3431 56.8962 50.1069 58.2912C49.7862 60.17 48.6275 66.4531 48.6275 66.4531ZM55.9625 67.3925C55.9625 67.3925 56.8287 67.2462 57.2281 66.0256C57.5544 65.03 58.3925 60.7831 58.5894 58.9831C58.6344 58.5612 58.6006 57.8131 58.3306 57.7456C58.1056 57.6894 57.83 57.7625 57.5431 59.2531C57.1944 61.1206 55.9625 67.3925 55.9625 67.3925ZM51.7944 66.9706C51.7944 66.9706 52.6606 66.8244 53.06 65.6037C53.4594 64.3831 54.365 58.6175 54.3987 58.1506C54.4437 57.4644 54.2412 57.2787 53.9825 57.3406C53.7181 57.3969 53.5325 58.0719 53.3806 58.8369C52.8478 61.5473 52.3191 64.2586 51.7944 66.9706Z"
        fill="#366358" />
</svg>
