<svg width="24" height="24" viewBox="0 0 24 24" fill="none" xmlns="http://www.w3.org/2000/svg">
    <path fill-rule="evenodd" clip-rule="evenodd"
        d="M14.42 2.96859L12 1L9.58004 2.96859L6.5 2.47372L5.38855 5.38855L2.47372 6.5L2.96859 9.58004L1 12L2.96859 14.42L2.47372 17.5L5.38855 18.6114L6.5 21.5263L9.58004 21.0314L12 23L14.42 21.0314L17.5 21.5263L18.6114 18.6114L21.5263 17.5L21.0314 14.42L23 12L21.0314 9.58004L21.5263 6.5L18.6114 5.38855L17.5 2.47372L14.42 2.96859ZM17.6496 9.5499L10.5996 16.5999L6.34961 12.3499L7.74961 10.9499L10.5996 13.7999L16.2496 8.1499L17.6496 9.5499Z"
        fill="#478173" />
</svg>
