<svg width="72" height="72" viewBox="0 0 72 72" fill="none" xmlns="http://www.w3.org/2000/svg">
    <path d="M65.73 23.2894H7.56189L10.785 13.0294H61.4381L65.73 23.2894Z" fill="#478173" />
    <path
        d="M69.3019 28.695L63.2326 13.89C63.0709 13.4344 62.7721 13.04 62.3773 12.761C61.9825 12.482 61.511 12.3321 61.0276 12.3318H11.3588C10.3688 12.3318 9.48569 12.9562 9.15382 13.89L3.07319 28.695C3.01959 28.8532 3.00445 29.0219 3.02901 29.1871C3.05357 29.3524 3.11714 29.5094 3.21444 29.6452C3.31175 29.781 3.44 29.8916 3.58857 29.968C3.73714 30.0444 3.90177 30.0842 4.06882 30.0844H68.3063C68.4734 30.0842 68.638 30.0444 68.7866 29.968C68.9351 29.8916 69.0634 29.781 69.1607 29.6452C69.258 29.5094 69.3216 29.3524 69.3461 29.1871C69.3707 29.0219 69.3555 28.8532 69.3019 28.695ZM65.1451 27.8456H7.23007C6.49319 27.8456 5.97569 27.12 6.21194 26.4225L11.0157 15.3356C11.1309 15.0146 11.3424 14.737 11.6213 14.5407C11.9001 14.3444 12.2328 14.2389 12.5738 14.2387H59.8126C60.5101 14.2387 61.1344 14.6775 61.3707 15.3356L66.1744 26.4225C66.2277 26.5853 66.2417 26.7584 66.2152 26.9276C66.1888 27.0969 66.1226 27.2574 66.0222 27.3962C65.9219 27.535 65.79 27.6481 65.6376 27.7262C65.4851 27.8043 65.3164 27.8452 65.1451 27.8456Z"
        fill="#519484" />
    <path
        d="M3 29.1394V65.9381C3 66.7087 3.61875 67.3275 4.38375 67.3275H67.9856C68.7506 67.3275 69.375 66.7087 69.375 65.9381V29.0212L3 29.1394Z"
        fill="#478173" />
    <path
        d="M60.2231 29.1337V11.1956C60.2231 10.6781 59.8012 10.2563 59.2837 10.2563V6.69562C59.2837 6.31222 59.1314 5.94452 58.8603 5.67341C58.5892 5.40231 58.2215 5.25 57.8381 5.25H48.0844C47.701 5.25 47.3332 5.40231 47.0621 5.67341C46.791 5.94452 46.6387 6.31222 46.6387 6.69562V7.68562C46.6387 9.10312 45.4856 10.2563 44.0681 10.2563H13.53C12.7706 10.2563 12.1519 10.875 12.1519 11.6344V29.1281H60.2231V29.1337Z"
        fill="#F3AB47" />
    <path
        d="M59.2893 10.2619V6.70124C59.2893 6.31784 59.137 5.95014 58.8659 5.67903C58.5948 5.40792 58.2271 5.25562 57.8437 5.25562H48.0843C47.7009 5.25562 47.3332 5.40792 47.0621 5.67903C46.791 5.95014 46.6387 6.31784 46.6387 6.70124V7.69124C46.6387 8.73187 45.9243 9.90187 44.3774 10.2619H59.2893Z"
        fill="#7CB342" />
    <path opacity="0.75" d="M12.1519 13.0294H60.2287V15.96H12.1519V13.0294Z" fill="#DE7340" />
    <path
        d="M63.39 29.0494V16.0613C63.39 15.6465 63.2252 15.2488 62.932 14.9555C62.6387 14.6623 62.241 14.4975 61.8262 14.4975H46.2506C45.8687 14.4975 45.4906 14.4223 45.1377 14.2761C44.7849 14.13 44.4643 13.9158 44.1943 13.6457C43.9242 13.3757 43.71 13.0551 43.5639 12.7023C43.4177 12.3494 43.3425 11.9713 43.3425 11.5894V10.47C43.3425 9.56438 42.6112 8.83313 41.7056 8.83313H30.6694C29.7637 8.83313 29.0325 9.56438 29.0325 10.47V11.5894C29.0325 11.9713 28.9573 12.3494 28.8111 12.7023C28.665 13.0551 28.4508 13.3757 28.1807 13.6457C27.9107 13.9158 27.5901 14.13 27.2373 14.2761C26.8844 14.4223 26.5063 14.4975 26.1244 14.4975H10.5487C10.134 14.4975 9.73626 14.6623 9.443 14.9555C9.14974 15.2488 8.98499 15.6465 8.98499 16.0613V29.0494H63.39Z"
        fill="#FFCA28" />
    <path
        d="M43.3425 11.5894V10.47C43.3425 9.56438 42.6113 8.83313 41.7056 8.83313H30.6694C29.7638 8.83313 29.0325 9.56438 29.0325 10.47V11.5894C29.0325 12.3607 28.7261 13.1004 28.1807 13.6457C27.6354 14.1911 26.8957 14.4975 26.1244 14.4975H46.2563C44.6475 14.4975 43.3425 13.1925 43.3425 11.5894Z"
        fill="#0288D1" />
    <path d="M7.32007 19.0031H63.3901V21.9337H7.32007V19.0031Z" fill="#F3AB47" />
    <path
        d="M66.225 29.0494V22.215C66.225 21.757 66.0431 21.3178 65.7192 20.9939C65.3954 20.6701 64.9561 20.4881 64.4981 20.4881H26.3381C24.5663 20.4881 23.1263 19.0481 23.1263 17.2762V16.0387C23.1263 15.0431 22.3163 14.2331 21.3206 14.2331H9.13126C8.13564 14.2331 7.32564 15.0431 7.32564 16.0387V20.4881C6.67876 20.4881 6.15564 21.0112 6.15564 21.6581V29.0437H66.225V29.0494Z"
        fill="#FFE36C" />
    <path
        d="M23.1263 17.2762V16.0387C23.1263 15.0431 22.3163 14.2331 21.3207 14.2331H9.13131C8.13568 14.2331 7.32568 15.0431 7.32568 16.0387V20.4881H26.3438C25.9215 20.4889 25.5033 20.4063 25.113 20.2453C24.7226 20.0842 24.3679 19.8477 24.069 19.5494C23.7702 19.2511 23.5331 18.8967 23.3713 18.5067C23.2096 18.1166 23.1263 17.6985 23.1263 17.2762Z"
        fill="#F44336" />
    <path
        d="M66.2251 26.4169C66.3657 27.705 65.8819 27.84 65.1451 27.84H7.23007C6.49319 27.84 5.98694 27.8962 6.15007 26.5406L3.92819 26.6137L3.07319 28.695C3.01959 28.8532 3.00445 29.0219 3.02901 29.1872C3.05357 29.3524 3.11714 29.5094 3.21444 29.6452C3.31175 29.781 3.44 29.8916 3.58857 29.968C3.73714 30.0444 3.90177 30.0843 4.06882 30.0844H68.3063C68.4734 30.0843 68.638 30.0444 68.7866 29.968C68.9351 29.8916 69.0634 29.781 69.1607 29.6452C69.258 29.5094 69.3216 29.3524 69.3461 29.1872C69.3707 29.0219 69.3555 28.8532 69.3019 28.695L68.3176 26.2819L66.2251 26.4169Z"
        fill="#519484" />
    <path d="M26.3381 44.1187H45.1144V53.9062H26.3381V44.1187Z" fill="#3A695E" />
</svg>
